<?xml version="1.0" standalone="no"?>
<!DOCTYPE svg PUBLIC "-//W3C//DTD SVG 1.1//EN" 
  "http://www.w3.org/Graphics/SVG/1.1/DTD/svg11.dtd">
<svg width="291px" height="222px" version="1.1"
  xmlns="http://www.w3.org/2000/svg" xmlns:xlink="http://www.w3.org/1999/xlink">

  <defs>
    <filter id="dsFilter" width="150%" height="150%">
      <feOffset result="offOut" in="SourceGraphic" dx="3" dy="3"/>
      <feColorMatrix result="matrixOut" in="offOut" type="matrix" values="0.2 0 0 0 0 0 0.2 0 0 0 0 0 0.2 0 0 0 0 0 1 0"/>
      <feGaussianBlur result="blurOut" in="matrixOut" stdDeviation="3"/>
      <feBlend in="SourceGraphic" in2="blurOut" mode="normal"/>
    </filter>

    <marker id="iPointer"
      viewBox="0 0 10 10" refX="5" refY="5" 
      markerUnits="strokeWidth"
      markerWidth="8" markerHeight="7"
      orient="auto">
      <path d="M 10 0 L 10 10 L 0 5 z" />
    </marker>
    <marker id="Pointer"
      viewBox="0 0 10 10" refX="0" refY="5" 
      markerUnits="strokeWidth"
      markerWidth="8" markerHeight="7"
      orient="auto">
      <path d="M 0 0 L 10 5 L 0 10 z" />
    </marker>
  </defs><g id="boxes" filter="url(#dsFilter)" stroke="black" stroke-width="2" fill="none" >
<path id="path57" fill="#88d" d="M 18 26 Q 18 16 28 16 L 242 16 Q 252 16 252 26 L 252 134 Q 252 144 242 144 L 28 144 Q 18 144 18 134 Z" />
<path id="path58" fill="#fff" d="M 36 58 Q 36 48 46 48 L 62 48 Q 72 48 72 58 L 72 54 Q 72 64 62 64 L 64 64 Q 54 64 54 74 L 54 70 Q 54 80 64 80 L 62 80 Q 72 80 72 90 L 72 86 Q 72 96 62 96 L 46 96 Q 36 96 36 86 Z" />
<path id="path59" fill="#fff" d="M 72 58 Q 72 48 82 48 L 80 48 Q 90 48 90 58 L 90 86 Q 90 96 80 96 L 82 96 Q 72 96 72 86 L 72 90 Q 72 80 62 80 L 64 80 Q 54 80 54 70 L 54 74 Q 54 64 64 64 L 62 64 Q 72 64 72 54 Z" />

<path id="path60" fill="#fff" d="M 108 58 Q 108 48 118 48 L 152 48 Q 162 48 162 58 L 162 86 Q 162 96 152 96 L 118 96 Q 108 96 108 86 L 108 64 Z" />
<path id="path61" fill="#fff" d="M 180 58 Q 180 48 190 48 L 224 48 Q 234 48 234 58 L 234 86 Q 234 96 224 96 L 190 96 Q 180 96 180 86 L 180 80 Z" />
<path id="path62" fill="#fff" d="M 54 74 Q 54 64 64 64 L 62 64 Q 72 64 72 74 L 72 70 Q 72 80 62 80 L 64 80 Q 54 80 54 70 Z" />
</g>
<g id="lines" stroke="black" stroke-width="2" fill="none" >
<path id="path63" marker-end="url(#Pointer)" d="M 108 64 L 135 64 " />
<path id="path64" marker-start="url(#iPointer)" d="M 135 80 L 162 80 " />
<path id="path65" marker-end="url(#Pointer)" d="M 180 80 L 207 80 " />
<path id="path66" marker-start="url(#iPointer)" d="M 207 64 L 234 64 " />
</g>
<g id="text" fill="black" style="font-family:monospace;font-size:16px" >
<text x="39.6" y="116.8" fill="#fff" >ascii </text>
<text x="129.6" y="116.8" fill="#fff" >2</text>
<text x="192.6" y="116.8" fill="#fff" >svg </text>

<text x="21.6" y="164.8" >https://9vx.org/~dho/a2s/</text>
<text x="-5.4" y="180.8" ></text>
</g>
</svg>
