<?xml version="1.0" standalone="no"?>
<!DOCTYPE svg PUBLIC "-//W3C//DTD SVG 1.1//EN" 
  "http://www.w3.org/Graphics/SVG/1.1/DTD/svg11.dtd">
<!-- Created with ASCIIToSVG (http://9vx.org/~dho/a2s/) -->
<svg width="300px" height="222px" version="1.1"
  xmlns="http://www.w3.org/2000/svg" xmlns:xlink="http://www.w3.org/1999/xlink">
  <defs>
    <filter id="dsFilter" width="150%" height="150%">
      <feOffset result="offOut" in="SourceGraphic" dx="3" dy="3"/>
      <feColorMatrix result="matrixOut" in="offOut" type="matrix" values="0.2 0 0 0 0 0 0.2 0 0 0 0 0 0.2 0 0 0 0 0 1 0"/>
      <feGaussianBlur result="blurOut" in="matrixOut" stdDeviation="3"/>
      <feBlend in="SourceGraphic" in2="blurOut" mode="normal"/>
    </filter>
    <marker id="iPointer"
      viewBox="0 0 10 10" refX="5" refY="5" 
      markerUnits="strokeWidth"
      markerWidth="8" markerHeight="7"
      orient="auto">
      <path d="M 10 0 L 10 10 L 0 5 z" />
    </marker>
    <marker id="Pointer"
      viewBox="0 0 10 10" refX="0" refY="5" 
      markerUnits="strokeWidth"
      markerWidth="8" markerHeight="7"
      orient="auto">
      <path d="M 0 0 L 10 5 L 0 10 z" />
    </marker>
  </defs><g id="boxes" filter="url(#dsFilter)" stroke="black" stroke-width="2" fill="none" >
<path id="path0" fill="#fff" d="M 234 10 Q 234 0 244 0 Z" />
<path id="path1" fill="#fff" d="M 18 42 Q 18 32 28 32 L 44 32 Q 54 32 54 22 L 62 32 Q 72 32 72 42 L 72 70 Q 72 80 62 80 L 64 80 Q 54 80 54 70 L 28 80 Q 18 80 18 70 Z" />
<path id="path2" fill="#fff" d="M 90 42 Q 90 32 100 32 L 134 32 Q 144 32 144 42 L 144 70 Q 144 80 134 80 L 100 80 Q 90 80 90 70 L 90 48 Z" />
<path id="path3" fill="#fff" d="M 162 42 Q 162 32 172 32 L 206 32 Q 216 32 216 42 L 216 70 Q 216 80 206 80 L 172 80 Q 162 80 162 70 L 162 64 Z" />
<path id="path4" fill="#fff" d="M 36 58 Q 36 48 46 48 L 44 48 Q 54 48 54 58 L 54 54 Q 54 64 44 64 L 46 64 Q 36 64 36 54 Z" />
</g>
<g id="lines" stroke="black" stroke-width="2" fill="none" >
<path id="path5" marker-end="url(#Pointer)" d="M 90 48 L 117 48 " />
<path id="path6" marker-start="url(#iPointer)" d="M 117 64 L 144 64 " />
<path id="path7" marker-end="url(#Pointer)" d="M 162 64 L 189 64 " />
<path id="path8" marker-start="url(#iPointer)" d="M 189 48 L 216 48 " />
</g>
<g id="text" fill="black" style="font-family:monospace;font-size:16px" >
<text x="-5.4" y="4.8" >.------------------------- </text>
<text x="-5.4" y="20.8" >|[1] </text>
<text x="228.6" y="20.8" >|</text>
<text x="-5.4" y="36.8" >|</text>
<text x="228.6" y="36.8" >|</text>
<text x="-5.4" y="52.8" >|</text>
<text x="228.6" y="52.8" >|</text>
<text x="-5.4" y="68.8" >|</text>
<text x="228.6" y="68.8" >|</text>
<text x="-5.4" y="84.8" >|</text>
<text x="228.6" y="84.8" >|</text>
<text x="-5.4" y="100.8" >|</text>
<text x="21.6" y="100.8" >ascii </text>
<text x="111.6" y="100.8" >2</text>
<text x="174.6" y="100.8" >svg </text>
<text x="228.6" y="100.8" >|</text>
<text x="-5.4" y="116.8" >|</text>
<text x="228.6" y="116.8" >|</text>
<text x="-5.4" y="132.8" >'-------------------------' </text>
<text x="3.6" y="148.8" >https://9vx.org/~dho/a2s/ </text>
<text x="-5.4" y="180.8" ></text>
</g>
</svg>
